<?xml version="1.0" standalone="no"?>
<!DOCTYPE svg PUBLIC "-//W3C//DTD SVG 20010904//EN"
 "http://www.w3.org/TR/2001/REC-SVG-20010904/DTD/svg10.dtd">
<svg version="1.0" xmlns="http://www.w3.org/2000/svg"
 width="300.000000pt" height="300.000000pt" viewBox="0 0 300.000000 300.000000"
 preserveAspectRatio="xMidYMid meet">
<metadata>
Created by potrace 1.10, written by Peter Selinger 2001-2011
</metadata>
<g transform="translate(0.000000,300.000000) scale(0.050000,-0.050000)"
fill="#000000" stroke="none">
<path d="M5472 4917 c-204 -19 -550 -129 -851 -270 -839 -392 -1198 -961
-1664 -2637 -55 -198 -105 -364 -111 -370 -6 -5 -5 127 3 294 29 622 -47 2012
-112 2053 -67 42 -91 -14 -106 -242 -54 -835 -336 -1461 -787 -1747 -185 -117
-379 -50 -387 134 -2 37 -4 76 -5 86 -1 10 70 66 158 125 291 195 572 517 673
772 72 183 67 464 -8 539 -271 271 -856 -390 -944 -1064 -30 -231 -29 -228
-134 -281 -166 -84 -322 -114 -556 -106 -181 6 -211 3 -217 -25 -20 -106 476
-161 706 -79 66 24 135 48 154 54 26 9 36 -6 47 -66 120 -689 1011 -168 1289
754 25 82 51 167 59 189 26 69 42 -844 23 -1272 -20 -465 -13 -582 39 -629
104 -94 165 12 297 512 290 1097 522 1714 811 2149 381 575 1136 1035 1807
1101 79 8 138 22 132 32 -12 19 -65 19 -316 -6z m-3281 -1358 c141 -229 -238
-807 -724 -1105 -56 -34 33 353 131 571 164 365 506 674 593 534z"/>
</g>
</svg>
