 <svg  version="1.0" xmlns="http://www.w3.org/2000/svg"  width="900.000000pt" height="540.000000pt" viewBox="0 0 900.000000 540.000000"  preserveAspectRatio="xMidYMid meet">  <g transform="translate(0.000000,540.000000) scale(0.100000,-0.100000)" fill="#a9c3da" stroke="none"> <path d="M5970 4939 c-91 -4 -183 -12 -205 -18 -22 -6 -56 -11 -76 -11 -20 0 -59 -6 -85 -14 -27 -8 -85 -25 -129 -37 -44 -12 -87 -26 -95 -30 -8 -4 -42 -17 -75 -28 -107 -36 -267 -99 -365 -144 -203 -92 -239 -112 -418 -222 -183 -112 -419 -324 -549 -490 -175 -223 -336 -493 -427 -712 -14 -35 -37 -86 -49 -115 -13 -29 -32 -73 -41 -98 -10 -25 -23 -56 -28 -70 -6 -14 -14 -36 -18 -50 -5 -14 -18 -50 -30 -80 -12 -30 -25 -68 -30 -85 -5 -16 -19 -61 -33 -100 -13 -38 -39 -117 -57 -175 -70 -219 -91 -287 -106 -340 -9 -30 -22 -71 -29 -90 -7 -19 -20 -62 -29 -95 -9 -33 -23 -82 -31 -110 -7 -27 -22 -79 -31 -115 -9 -36 -23 -87 -31 -115 -8 -27 -21 -72 -28 -100 -46 -163 -60 -203 -69 -198 -5 4 -6 92 -1 227 14 414 2 1157 -25 1526 -5 74 -10 182 -11 240 0 58 -4 139 -9 180 -5 41 -14 140 -19 220 -12 164 -20 193 -62 211 -33 13 -73 -1 -89 -32 -5 -9 -14 -88 -20 -175 -14 -204 -29 -384 -39 -454 -26 -179 -33 -220 -46 -265 -7 -27 -21 -86 -30 -130 -9 -44 -32 -120 -50 -170 -19 -49 -40 -106 -47 -125 -19 -53 -118 -245 -172 -333 -101 -167 -182 -267 -327 -404 -163 -156 -235 -196 -360 -201 -106 -5 -133 7 -187 81 -34 45 -41 64 -52 138 -7 48 -10 94 -7 102 3 8 38 36 79 62 228 150 435 329 593 515 92 108 245 357 245 400 0 5 6 24 14 42 34 82 46 134 62 277 7 54 -8 170 -29 225 -17 45 -55 85 -108 111 -133 68 -318 -4 -507 -197 -125 -127 -204 -243 -286 -423 -26 -55 -51 -108 -56 -117 -14 -25 -58 -151 -94 -268 -24 -77 -49 -229 -70 -426 -2 -17 -6 -36 -10 -43 -12 -19 -75 -55 -156 -88 -259 -107 -413 -123 -745 -77 -32 4 -45 1 -62 -15 -81 -76 167 -172 442 -171 166 1 358 43 470 104 17 9 40 16 52 16 24 0 27 -8 37 -94 8 -70 61 -169 125 -235 67 -68 125 -92 248 -99 120 -7 203 21 346 117 128 86 383 369 447 496 6 11 24 43 40 70 38 63 158 305 170 342 5 15 27 80 49 143 23 63 41 123 41 132 0 21 31 88 40 88 21 0 34 -910 19 -1260 -28 -646 -23 -790 32 -841 39 -37 72 -43 115 -23 66 32 91 88 170 389 50 193 78 296 89 335 13 48 38 139 62 230 8 30 20 75 28 100 7 25 21 74 30 110 10 36 30 103 45 150 16 47 42 132 60 190 74 247 83 268 107 276 23 7 67 26 123 53 48 23 61 31 128 74 24 15 46 27 49 27 3 0 22 13 42 29 40 32 81 48 81 32 0 -5 -4 -20 -9 -33 -30 -76 -43 -148 -45 -242 -1 -84 2 -107 18 -131 50 -79 113 -108 231 -108 83 -1 97 2 160 33 39 19 84 43 100 54 51 35 232 218 277 279 76 104 77 81 12 -200 -31 -134 -11 -196 64 -196 68 0 102 39 203 238 70 137 143 239 239 335 89 88 129 116 153 107 22 -8 28 -113 21 -325 -8 -211 -7 -215 58 -262 36 -26 50 -30 107 -30 137 0 338 103 509 262 28 27 57 46 62 43 6 -3 10 -40 10 -81 0 -147 83 -244 210 -244 108 0 317 115 469 257 32 31 61 43 61 25 0 -4 -4 -22 -10 -41 -5 -18 -10 -64 -12 -102 -2 -60 1 -72 22 -94 28 -29 68 -33 97 -7 21 18 63 104 63 131 0 9 7 25 15 35 8 11 15 28 15 38 0 27 59 145 101 203 78 108 262 242 320 233 20 -2 25 -10 27 -43 2 -22 -3 -74 -11 -115 -52 -256 -49 -323 21 -396 57 -60 155 -74 329 -48 38 5 44 4 52 -17 16 -42 82 -109 130 -133 80 -40 234 -61 326 -45 33 5 83 14 110 18 96 16 271 65 292 82 19 16 26 68 13 98 -14 35 -64 55 -105 41 -17 -5 -57 -16 -90 -24 -33 -8 -91 -23 -130 -33 -52 -13 -107 -18 -215 -18 -138 0 -147 1 -177 24 -67 50 -59 63 75 133 42 22 91 51 109 64 17 13 34 24 38 24 28 0 233 192 298 279 53 72 62 87 87 158 54 154 -3 253 -146 253 -44 0 -73 -7 -123 -32 -104 -50 -148 -83 -254 -192 -112 -115 -184 -230 -221 -351 -44 -144 -40 -138 -104 -158 -39 -12 -81 -17 -132 -15 l-75 3 -3 40 c-4 37 8 105 44 261 53 228 -46 367 -218 308 -29 -10 -60 -24 -69 -31 -8 -7 -18 -13 -22 -13 -13 0 -124 -83 -173 -130 -71 -68 -92 -67 -57 2 9 18 22 45 30 60 30 61 -1 128 -59 128 -27 0 -78 -49 -78 -74 0 -22 -58 -127 -97 -174 -134 -165 -307 -312 -467 -396 -148 -78 -159 -70 -153 116 4 159 17 223 68 346 22 51 39 100 39 109 0 8 -9 28 -21 44 -16 22 -28 29 -54 29 -41 0 -75 -32 -111 -105 -48 -96 -112 -184 -203 -278 -57 -60 -176 -157 -236 -194 -46 -28 -143 -76 -184 -90 -55 -19 -64 -9 -56 67 4 30 7 134 8 232 1 178 -2 196 -42 278 -13 26 -73 60 -104 60 -51 0 -152 -57 -231 -131 -70 -66 -215 -244 -229 -282 -4 -10 -12 -15 -18 -11 -12 7 -8 33 15 109 17 56 41 135 63 210 26 91 3 154 -57 155 -46 0 -87 -37 -147 -135 -66 -108 -127 -199 -158 -236 -107 -126 -138 -159 -212 -225 -46 -40 -115 -88 -153 -108 -60 -31 -78 -36 -139 -36 -64 0 -72 2 -87 25 -14 21 -16 40 -10 111 4 47 13 100 20 117 8 18 21 57 31 87 9 30 24 73 33 95 18 45 96 181 119 207 21 23 10 61 -23 83 -38 24 -72 7 -176 -91 -48 -46 -111 -101 -140 -123 -29 -23 -57 -45 -63 -49 -5 -4 -17 -11 -25 -15 -8 -4 -27 -15 -42 -25 -83 -54 -151 -92 -164 -92 -18 0 -18 11 0 52 8 18 21 51 29 73 27 71 79 198 108 263 16 34 29 64 29 67 0 8 92 193 132 265 19 36 52 96 72 133 41 76 78 131 212 310 89 119 187 227 311 339 53 48 267 214 315 243 9 6 49 33 90 60 40 28 80 53 88 58 8 4 29 16 45 26 35 23 164 87 250 125 33 15 74 33 90 40 17 8 55 24 85 35 30 12 64 26 75 30 55 23 196 60 315 84 41 9 100 21 130 27 30 6 98 14 150 16 106 6 128 11 114 23 -17 16 -48 18 -214 10z m-3806 -1518 c26 -29 40 -151 26 -230 -13 -74 -51 -193 -83 -261 -71 -148 -268 -384 -452 -539 -96 -81 -269 -201 -290 -201 -18 0 -18 9 -4 119 20 163 83 362 175 558 20 43 40 87 46 98 12 27 24 46 82 133 89 134 221 258 351 330 11 6 45 12 76 12 43 0 60 -5 73 -19z m6329 -383 c6 -20 -13 -68 -49 -123 -60 -91 -265 -275 -354 -318 -8 -4 -35 -18 -59 -32 -24 -14 -48 -25 -53 -25 -11 0 -10 47 1 54 5 3 12 18 16 33 10 42 101 170 174 247 60 62 125 112 206 157 36 20 111 24 118 7z"/> <path d="M6315 3355 c-36 -37 -35 -92 3 -128 39 -38 84 -36 122 3 40 41 40 82 1 121 -39 38 -89 40 -126 4z"/> <path d="M4252 3335 c-45 -38 -45 -92 -1 -129 45 -38 91 -32 131 18 40 48 5 122 -63 132 -28 5 -41 1 -67 -21z"/> </g> </svg> 